<?xml version="1.0" encoding="utf-8"?>
<!-- Generator: Adobe Illustrator 27.5.0, SVG Export Plug-In . SVG Version: 6.00 Build 0)  -->
<svg version="1.1" id="图层_1" xmlns="http://www.w3.org/2000/svg" xmlns:xlink="http://www.w3.org/1999/xlink" x="0px" y="0px"
	 viewBox="0 0 503.34 503.34" enable-background="new 0 0 503.34 503.34" xml:space="preserve">
<path stroke="#000000" stroke-width="0.75" stroke-miterlimit="10" d="M251.67,0C112.68,0,0,112.68,0,251.67
	s112.68,251.67,251.67,251.67s251.67-112.68,251.67-251.67S390.66,0,251.67,0z M251.67,469.65c-120.39,0-217.98-97.59-217.98-217.98
	S131.28,33.69,251.67,33.69s217.98,97.59,217.98,217.98S372.06,469.65,251.67,469.65z"/>
<g>
	<path d="M306.45,205.05l-32.78,24.52c26.28,35.14,19.1,84.93-16.04,111.21c-35.14,26.28-84.93,19.1-111.21-16.04l-32.78,24.52
		c39.82,53.24,115.26,64.12,168.51,24.3S346.27,258.3,306.45,205.05z"/>
	<path d="M243.71,156.06c35.14-26.28,84.93-19.1,111.21,16.04l32.78-24.52c-39.82-53.24-115.26-64.12-168.51-24.3
		s-64.12,115.26-24.3,168.51l32.78-24.52C201.39,232.14,208.57,182.34,243.71,156.06z"/>
</g>
</svg>
