<?xml version="1.0" encoding="UTF-8"?>
<svg id="uuid-20b93846-caf9-4f77-8716-4115de65da3f" data-name="图层 1" xmlns="http://www.w3.org/2000/svg" viewBox="0 0 694.8 791.94">
  <defs>
    <style>
      .uuid-e18d7d31-6273-45cf-b36d-8490141b51f7 {
        fill: #ca3500;
      }

      .uuid-689d1258-1f83-42ff-b214-781bcbd95058 {
        fill: #ff6900;
      }

      .uuid-d86897ae-f298-4bbd-97d8-d58e015f70e4 {
        fill: none;
      }

      .uuid-8ca9c0a1-f7a3-4c6a-8c55-5aead112d6ea {
        fill: #f54900;
      }
    </style>
  </defs>
  <path class="uuid-d86897ae-f298-4bbd-97d8-d58e015f70e4" d="m422,533.71c10.77,0,19.5-8.73,19.5-19.5v-43.5c0-10.77-8.73-19.5-19.5-19.5s-19.5,8.73-19.5,19.5v43.5c0,10.77,8.73,19.5,19.5,19.5Z"/>
  <path class="uuid-d86897ae-f298-4bbd-97d8-d58e015f70e4" d="m306,562.71c10.77,0,19.5-8.73,19.5-19.5v-101.5c0-10.77-8.73-19.5-19.5-19.5s-19.5,8.73-19.5,19.5v101.5c0,10.77,8.73,19.5,19.5,19.5Z"/>
  <path class="uuid-d86897ae-f298-4bbd-97d8-d58e015f70e4" d="m364,606.21c10.77,0,19.5-8.73,19.5-19.5v-188.5c0-10.77-8.73-19.5-19.5-19.5s-19.5,8.73-19.5,19.5v188.5c0,10.77,8.73,19.5,19.5,19.5Z"/>
  <path class="uuid-d86897ae-f298-4bbd-97d8-d58e015f70e4" d="m291.27,208.44c69.18,0,131.98,23.66,182.05,63.71V90.18H0v409.53C0,338.6,130.16,208.44,291.27,208.44Z"/>
  <path class="uuid-d86897ae-f298-4bbd-97d8-d58e015f70e4" d="m132,533.71c10.77,0,19.5-8.73,19.5-19.5v-43.5c0-10.77-8.73-19.5-19.5-19.5s-19.5,8.73-19.5,19.5v43.5c0,10.77,8.73,19.5,19.5,19.5Z"/>
  <path class="uuid-d86897ae-f298-4bbd-97d8-d58e015f70e4" d="m248,649.71c10.77,0,19.5-8.73,19.5-19.5v-261c0-10.77-8.73-19.5-19.5-19.5s-19.5,8.73-19.5,19.5v261c0,10.77,8.73,19.5,19.5,19.5Z"/>
  <path class="uuid-d86897ae-f298-4bbd-97d8-d58e015f70e4" d="m673.22,90.18c22.59,17.75,27.99,50.04,11.27,74.68-17.3,24.57-50.97,30.95-76.46,13.65l-25.48-18.2v336.53l-.02-.04c0,.97.02,1.94.02,2.91,0,16.39-.91,31.86-3.64,47.33-22.76,138.35-142.91,243.94-287.63,243.94C130.16,790.98,0,660.82,0,499.71v292.23h694.8V90.18h-21.58Z"/>
  <path class="uuid-d86897ae-f298-4bbd-97d8-d58e015f70e4" d="m190,591.71c10.77,0,19.5-8.73,19.5-19.5v-159.5c0-10.77-8.73-19.5-19.5-19.5s-19.5,8.73-19.5,19.5v159.5c0,10.77,8.73,19.5,19.5,19.5Z"/>
  <path class="uuid-e18d7d31-6273-45cf-b36d-8490141b51f7" d="m582.52,496.8c-.89-90.75-43.46-171.51-109.21-224.64v254.86c0,30.03,24.57,54.61,54.61,54.61,22.75,0,42.78-14.56,50.97-34.59,2.73-15.47,3.64-30.95,3.64-47.33,0-.97-.01-1.94-.02-2.91Z"/>
  <path class="uuid-689d1258-1f83-42ff-b214-781bcbd95058" d="m673.22,90.18c-.78-.61-1.57-1.21-2.39-1.78l-111.05-78.28c-36.41-25.49-86.47,0-86.47,44.6v217.43c65.74,53.14,108.31,133.9,109.21,224.64l.02.04V160.31l25.48,18.2c25.49,17.29,59.16,10.92,76.46-13.65,16.72-24.64,11.32-56.93-11.27-74.68Z"/>
  <path class="uuid-8ca9c0a1-f7a3-4c6a-8c55-5aead112d6ea" d="m291.27,790.98c144.73,0,264.88-105.59,287.63-243.94-8.19,20.03-27.31,34.59-50.97,34.59-30.04,0-54.61-24.58-54.61-54.61v-254.86c-50.06-40.05-112.87-63.71-182.05-63.71C130.16,208.44,0,338.6,0,499.71s130.16,291.27,291.27,291.27Zm111.23-320.27c0-10.77,8.73-19.5,19.5-19.5s19.5,8.73,19.5,19.5v43.5c0,10.77-8.73,19.5-19.5,19.5s-19.5-8.73-19.5-19.5v-43.5Zm-58-72.5c0-10.77,8.73-19.5,19.5-19.5s19.5,8.73,19.5,19.5v188.5c0,10.77-8.73,19.5-19.5,19.5s-19.5-8.73-19.5-19.5v-188.5Zm-58,43.5c0-10.77,8.73-19.5,19.5-19.5s19.5,8.73,19.5,19.5v101.5c0,10.77-8.73,19.5-19.5,19.5s-19.5-8.73-19.5-19.5v-101.5Zm-58-72.5c0-10.77,8.73-19.5,19.5-19.5s19.5,8.73,19.5,19.5v261c0,10.77-8.73,19.5-19.5,19.5s-19.5-8.73-19.5-19.5v-261Zm-58,43.5c0-10.77,8.73-19.5,19.5-19.5s19.5,8.73,19.5,19.5v159.5c0,10.77-8.73,19.5-19.5,19.5s-19.5-8.73-19.5-19.5v-159.5Zm-58,58c0-10.77,8.73-19.5,19.5-19.5s19.5,8.73,19.5,19.5v43.5c0,10.77-8.73,19.5-19.5,19.5s-19.5-8.73-19.5-19.5v-43.5Z"/>
</svg>